<svg width="60" height="60" viewBox="0 0 60 60" fill="none" xmlns="http://www.w3.org/2000/svg">
<path d="M10.8406 10.0938L23.5671 22.8203C24.0218 22.1032 24.464 21.3547 24.9577 20.6407C25.4515 19.9266 25.9593 19.2938 26.4687 18.6266C26.7093 18.3141 27.0249 18.1938 27.303 18.5313C28.914 20.4813 30.4015 22.5078 31.0796 25.0032C31.4155 26.2391 31.1265 27.4016 30.6577 28.5407C30.5624 28.7703 30.4609 28.9985 30.3906 29.1657L34.4827 25.0594C34.0281 24.4188 33.4812 23.6891 32.9796 22.9297C32.1265 21.6375 31.3921 20.2907 31.0499 18.7563C30.8218 17.7375 31.0124 16.7766 31.3624 15.8328C32.1327 13.775 33.3937 12.0141 34.7624 10.3266C35.0155 10.0141 35.3327 9.91254 35.6015 10.2438C37.2187 12.2344 38.7546 14.2782 39.3952 16.8328C39.7296 18.1641 39.3359 19.3797 38.8046 20.5735C38.7577 20.6782 38.7234 20.786 38.6296 21.0313C38.839 20.8578 38.9421 20.7813 39.0421 20.6875C39.9687 19.7625 40.9077 18.85 41.8062 17.8985C42.0058 17.6489 42.1386 17.3526 42.1921 17.0375C42.5374 15.4969 42.7921 13.9344 43.1937 12.411C43.8187 10.0594 45.3577 8.54379 47.714 7.96566C49.3765 7.55785 51.0718 7.2766 52.7577 6.97035C53.2702 6.8766 53.489 7.10472 53.4359 7.64066C53.2343 9.68597 52.8671 11.6938 52.1062 13.6203C51.4452 15.2922 50.289 16.4719 48.5859 16.9688C46.8827 17.4657 45.1374 17.7672 43.4155 18.1813C43.063 18.2485 42.7325 18.4015 42.453 18.6266C41.3952 19.6065 40.3906 20.6423 39.4437 21.7297L40.8499 21.1938C41.9758 20.7671 43.2197 20.7721 44.3421 21.2078C46.5077 21.9891 48.3437 23.3016 50.1046 24.7407C50.3952 24.9766 50.4687 25.2875 50.1624 25.5391C48.2109 27.1469 46.1859 28.6375 43.6921 29.3188C42.3702 29.6782 41.0984 29.411 39.9515 28.7875C38.4999 27.9985 37.1296 27.0563 35.7327 26.1766C35.5765 26.075 35.4202 25.9485 35.2999 25.8532L31.0937 30.0407C31.5031 29.8844 31.864 29.7407 32.2202 29.5938C32.8694 29.3193 33.567 29.1778 34.2718 29.1778C34.9766 29.1778 35.6742 29.3193 36.3234 29.5938C38.3452 30.3954 40.0952 31.625 41.764 32.9938C42.1749 33.3282 42.139 33.6625 41.7343 33.9485C40.4843 34.8235 39.2343 35.6844 37.9843 36.5485C37.8437 36.6453 37.6874 36.7219 37.5734 36.7875L50.0374 49.2719C51.089 47.8844 52.289 46.5532 53.2062 45.0532C58.9812 35.574 59.2307 25.9386 53.9546 16.1469C53.8984 16.0438 53.7984 15.9407 53.7984 15.8344C53.8192 15.6096 53.8563 15.3867 53.9093 15.1672C54.139 15.2407 54.4859 15.2438 54.5796 15.3985C55.0571 16.1816 55.4936 16.9889 55.8874 17.8172C63.7515 34.4875 53.9484 54.3063 35.9062 57.9829C26.2421 59.9516 17.6406 57.4985 10.3999 50.7954C4.99992 45.7813 2.0468 39.4625 1.50774 32.0985C0.98381 25.2013 2.98477 18.3487 7.13791 12.8173C11.2911 7.28576 17.3132 3.45244 24.0827 2.03129C31.2124 0.526598 37.9749 1.65004 44.3218 5.24066C44.4406 5.30785 44.614 5.3516 44.664 5.45472C44.7445 5.66676 44.8047 5.88598 44.8437 6.10941C44.6404 6.17492 44.431 6.21942 44.2187 6.24222C44.0999 6.24222 43.978 6.12347 43.8609 6.05629C39.2046 3.37816 34.1859 2.11254 28.8281 2.36879C21.9749 2.69847 16.0155 5.23129 10.9937 9.92191C10.9374 9.97035 10.8968 10.0313 10.8406 10.0938ZM17.9312 41.6563C17.8468 41.5422 17.7202 41.3954 17.6187 41.2344C16.7249 39.7954 15.7687 38.3907 14.9624 36.9016C14.6084 36.2668 14.3971 35.5625 14.3431 34.8376C14.2891 34.1128 14.3938 33.3849 14.6499 32.7047C15.4421 30.5016 16.7718 28.6313 18.2437 26.8438C18.5562 26.4703 18.8562 26.5938 19.1187 26.9203C20.3687 28.4578 21.4859 30.0672 22.3171 31.875C23.0984 33.5813 23.1281 35.2625 22.3171 36.9563C22.2234 37.15 22.1515 37.3532 22.0718 37.5485L26.2343 33.375C26.1484 33.2625 26.0202 33.1157 25.9218 32.9532C25.0374 31.5329 24.089 30.1407 23.2952 28.6735C22.5546 27.3047 22.3796 25.8125 22.9827 24.3203C23.1484 23.9188 23.0421 23.6953 22.7609 23.411C18.665 19.3297 14.5744 15.2433 10.489 11.1516C10.3734 11.036 10.2437 10.9313 10.1218 10.8235C-0.909445 22.1453 0.434305 39.8516 10.2781 49.2922L17.9312 41.6563ZM11.0562 50.0938C22.0734 60.7469 39.6499 59.6829 49.1921 49.8469C45.0754 45.7334 40.9551 41.6235 36.8312 37.5172C36.7406 37.4485 36.6355 37.4014 36.5239 37.3798C36.4122 37.3581 36.2971 37.3624 36.1874 37.3922C34.7546 37.9313 33.353 37.8391 31.9687 37.236C31.394 37.0003 30.8373 36.723 30.3031 36.4063C29.1687 35.6938 28.0671 34.9297 27.0218 34.236L22.9687 38.2813C22.9921 38.2719 23.0984 38.2375 23.1984 38.1907C24.464 37.6078 25.7609 37.225 27.164 37.6204C29.6296 38.3125 31.628 39.8078 33.5702 41.3844C33.8827 41.6375 33.7984 41.9438 33.5093 42.1797C31.7499 43.6188 29.9155 44.9422 27.7499 45.7094C26.9155 46.0032 26.064 46.1578 25.164 45.9719C23.5827 45.6453 22.2077 44.8782 20.8843 44.0094C20.1249 43.5078 19.3984 42.9578 18.6827 42.4469L11.0562 50.0938ZM35.2281 24.4344C36.4952 22.7969 37.6624 21.1703 38.3343 19.2422C38.6665 18.3131 38.6599 17.2966 38.3155 16.3719C37.6359 14.4703 36.4812 12.8563 35.2218 11.236C33.9546 12.8922 32.7593 14.5172 32.0968 16.4828C31.8016 17.3181 31.789 18.2272 32.0609 19.0703C32.7124 21.0782 33.9281 22.7438 35.2281 24.4344ZM18.6421 27.8266C17.3406 29.5016 16.1671 31.1422 15.5062 33.0922C15.1937 34.0094 15.1374 34.9672 15.5562 35.8344C16.1812 37.1282 16.8921 38.3797 17.6062 39.625C17.8812 40.1047 18.2671 40.5203 18.6405 41.0157C19.8905 39.4235 20.9843 37.8516 21.6843 36.0282C22.1249 34.8735 22.0656 33.7485 21.6046 32.6141C20.8984 30.8797 19.8437 29.375 18.6421 27.8266ZM19.3281 41.7891C20.3327 42.4735 21.214 43.1172 22.1406 43.6891C22.7939 44.0773 23.4725 44.4213 24.1718 44.7188C24.7328 44.9734 25.3412 45.1068 25.9573 45.11C26.5734 45.1132 27.1832 44.9863 27.7468 44.7375C29.4749 44.0204 31.0077 42.9953 32.4499 41.8219C32.4702 41.8063 32.4609 41.7532 32.4702 41.6782C30.9624 40.5 29.3921 39.3907 27.5609 38.7094C26.704 38.3607 25.7549 38.3095 24.8656 38.5641C22.8124 39.1828 21.1156 40.425 19.3281 41.7891ZM49.2952 25.0547C47.6687 24.0938 46.2046 23.1657 44.6812 22.3485C43.3296 21.6235 41.9156 21.661 40.5062 22.2953C38.8749 23.0313 37.414 24.025 35.9577 25.1735C37.6874 26.486 39.3952 27.7532 41.4718 28.3672C42.2464 28.5942 43.0723 28.5756 43.8359 28.3141C45.8156 27.6563 47.4734 26.4672 49.2952 25.0547ZM43.1359 17.2563C45.2874 16.9625 47.3327 16.6672 49.1812 15.661C49.6849 15.4042 50.1244 15.0373 50.4671 14.5875C51.839 12.6219 52.1218 10.3157 52.4609 7.92035C50.0859 8.27191 47.7874 8.5266 45.8437 9.89691C45.3296 10.2594 44.9156 10.8516 44.6187 11.425C43.6937 13.2141 43.4124 15.1844 43.1359 17.2563ZM31.5843 30.9157C33.2921 32.6266 34.9562 34.2969 36.6296 35.9563C36.679 35.9929 36.7367 36.0166 36.7975 36.0253C36.8583 36.0341 36.9204 36.0275 36.978 36.0063C38.278 35.2094 39.5702 34.3969 40.9421 33.5391C39.4109 32.3204 37.9734 31.3407 36.3577 30.6063C34.7421 29.8719 33.1812 30.0094 31.5843 30.9157ZM29.464 28.8188C30.3374 27.3391 30.5109 26.0063 29.9812 24.5594C29.3093 22.7282 28.2187 21.1422 26.9921 19.6422C26.9749 19.6219 26.9234 19.6282 26.7655 19.6016L24.4796 23.2032C24.3359 23.4297 24.2624 23.6172 24.5093 23.861C26.1577 25.4907 27.789 27.1375 29.464 28.8188ZM23.8562 24.6875C23.464 25.6547 23.5015 26.625 23.8452 27.5953C24.5202 29.4938 25.6702 31.1032 26.9609 32.7657L28.9921 29.8454L23.8562 24.6875ZM27.6062 33.4375C29.3671 34.775 31.0296 35.9969 33.039 36.6266C33.9514 36.9281 34.9442 36.8723 35.8171 36.4703C34.139 34.7953 32.5156 33.1688 30.878 31.5578C30.8133 31.5171 30.7396 31.4928 30.6634 31.4871C30.5871 31.4814 30.5106 31.4944 30.4406 31.525C29.5171 32.1313 28.6046 32.761 27.6124 33.4375H27.6062Z" fill="#75BAEB"/>
</svg>
