<svg width="60" height="60" viewBox="0 0 60 60" fill="none" xmlns="http://www.w3.org/2000/svg">
<path d="M29.9556 58.5937C14.0618 58.5609 1.34779 45.7078 1.39466 29.7359C1.44154 14.1281 14.3634 1.34372 30.0572 1.38904C45.865 1.43279 58.6415 14.2875 58.5915 30.0984C58.5431 45.8187 45.6681 58.6328 29.9556 58.5937ZM21.8743 21.0281C22.5165 20.0531 23.1243 18.9687 23.8853 18.014C25.0618 16.5422 25.6947 14.9578 25.3978 13.0593C25.3978 13.0218 25.3978 12.9812 25.3978 12.9422C25.3759 12.464 25.6165 12.289 26.079 12.2906C28.6967 12.3 31.3139 12.3 33.9306 12.2906C34.3993 12.2906 34.604 12.4906 34.5947 12.9609C34.5806 13.7015 34.5634 14.4468 34.604 15.1859C34.6205 15.5093 34.716 15.8237 34.8822 16.1015C35.7212 17.4172 36.5775 18.725 37.4618 20.0078C38.353 21.3035 38.8143 22.8465 38.7806 24.4187C38.7618 28.7547 38.7806 33.0922 38.7618 37.4281C38.7539 37.6474 38.7943 37.8658 38.8802 38.0678C38.9661 38.2698 39.0953 38.4504 39.2587 38.5968C42.6546 41.9687 46.04 45.3505 49.415 48.7422C49.5712 48.889 49.7181 49.0312 49.8681 49.175C59.7197 39.2687 60.9275 21.8156 49.5103 10.425C38.0931 -0.965654 20.6431 0.315597 10.8947 10.0406L21.8743 21.0281ZM10.1431 10.639C3.21028 18.4375 0.566541 27.2843 3.36342 37.2312C6.48842 48.3469 14.054 55.1437 25.4118 57.2187C34.4743 58.875 42.4212 56.1109 49.1259 50.0187L38.7665 39.6562V40.2234C38.7665 42.764 38.7665 45.3041 38.7665 47.8437C38.7665 49.825 37.6165 50.9687 35.6337 50.9687C31.8837 50.9687 28.1337 50.9687 24.3837 50.9687C22.3525 50.9687 21.2134 49.8375 21.2134 47.8234C21.2134 39.9692 21.2134 32.1156 21.2134 24.2625C21.1968 23.7376 21.2456 23.2128 21.3587 22.7C21.479 22.2406 21.3322 21.9859 21.0322 21.6859C17.5311 18.1963 14.0363 14.701 10.5478 11.2C10.3977 11.0226 10.2599 10.8352 10.1353 10.639H10.1431ZM22.2665 22.9453C22.2337 23.4375 22.1853 23.8047 22.1853 24.1734C22.1853 32.0901 22.1853 40.0021 22.1853 47.9093C22.1853 49.3 22.9337 50.0406 24.3243 50.0422C28.1139 50.0422 31.903 50.0422 35.6915 50.0422C37.1228 50.0422 37.8462 49.3093 37.8478 47.8687C37.8478 44.939 37.8384 42.0078 37.8587 39.0781C37.8649 38.8871 37.829 38.697 37.7533 38.5214C37.6777 38.3459 37.5643 38.1892 37.4212 38.0625C32.5327 33.1937 27.6525 28.3187 22.7806 23.4375C22.6447 23.3047 22.4993 23.1765 22.2587 22.9453H22.2665ZM37.6556 37.1093L37.8431 37.0078V24.075C37.8476 22.8558 37.4802 21.6643 36.79 20.6593C35.8759 19.2984 34.9853 17.9218 34.0556 16.5718C33.7684 16.1776 33.626 15.6964 33.6525 15.2093C33.6822 14.5718 33.6525 13.9312 33.6525 13.2781H26.3415C26.3415 13.8703 26.3056 14.4203 26.3509 14.9625C26.4118 15.664 26.1947 16.2343 25.7962 16.8093C24.7822 18.2906 23.8243 19.8093 22.8415 21.3109C22.5978 21.6812 22.5993 21.9531 22.9587 22.3093C27.7785 27.101 32.5868 31.9052 37.3837 36.7218C37.4853 36.8429 37.5763 36.9726 37.6556 37.1093Z" fill="#E46198"/>
<path d="M35.8625 10.9234C35.7938 10.9859 35.6469 11.2359 35.4891 11.2359C35.3313 11.2359 35.0203 11.0578 34.9797 10.9047C34.8734 10.4797 34.6188 10.4109 34.2484 10.4109C31.4193 10.4172 28.5891 10.4172 25.7578 10.4109C25.4 10.4109 25.125 10.4469 25.0141 10.8875C24.975 11.0438 24.6531 11.1328 24.4609 11.2531C24.35 11.0563 24.1484 10.8578 24.1484 10.6625C24.1594 9.95781 24.7734 9.48125 25.6188 9.47813C27.4547 9.47032 29.2891 9.47813 31.1234 9.47813C32.2359 9.47813 33.3484 9.46719 34.4609 9.47813C35.2703 9.49844 35.8766 10.0656 35.8625 10.9234Z" fill="#E46198"/>
<path d="M24.2383 40.4469C24.2383 39.5313 24.2133 38.6126 24.257 37.6985C24.2664 37.4985 24.4898 37.186 24.668 37.1423C25.0242 37.0563 25.1727 37.3422 25.1742 37.6829C25.1742 39.536 25.1883 41.3891 25.1539 43.2407C25.1539 43.4501 24.8914 43.7891 24.6992 43.8298C24.3352 43.9079 24.2305 43.5876 24.2305 43.2563C24.2414 42.3204 24.2383 41.3844 24.2383 40.4469Z" fill="#E46198"/>
<path d="M26.5727 20.0141C27.5102 20.0219 28.2648 20.4297 28.9164 21.1078C29.632 21.8453 30.4789 22.3578 31.5273 21.9641C32.0539 21.7656 32.5242 21.3641 32.9523 20.9813C33.5773 20.4266 34.2477 20.0297 35.0883 20.0438C35.293 20.0438 35.6242 20.2578 35.6695 20.4328C35.757 20.775 35.482 20.9469 35.1398 20.9578C34.4477 20.9813 33.9367 21.3281 33.4758 21.8172C31.9477 23.4328 29.818 23.4203 28.2711 21.8063C27.2398 20.7297 26.1305 20.6703 24.9539 21.5828C24.7883 21.7109 24.4852 21.6531 24.2383 21.6813C24.268 21.4266 24.2023 21.0844 24.343 20.9297C24.9227 20.2875 25.6852 20.0109 26.5727 20.0141Z" fill="#E46198"/>
</svg>
