<svg width="60" height="60" viewBox="0 0 60 60" fill="none" xmlns="http://www.w3.org/2000/svg">
<path d="M48.5369 49.2547L31.0369 31.7437C30.8806 31.889 30.7244 32.0422 30.5587 32.2015C25.8202 36.937 21.0806 41.6713 16.34 46.4047C16.0468 46.6789 15.6904 46.8764 15.3025 46.9797C14.1369 47.2922 12.9494 47.5375 11.7791 47.839C11.5216 47.9163 11.2875 48.0565 11.0978 48.2469C9.87125 49.45 8.665 50.675 7.44312 51.8828C6.97437 52.3515 6.41812 52.5218 5.78218 52.2656C5.22125 52.0422 4.84469 51.6031 4.88531 51.0156C4.92951 50.5418 5.12009 50.0934 5.43062 49.7328C6.57593 48.5047 7.79781 47.35 8.96969 46.139C9.1782 45.916 9.32847 45.645 9.40719 45.35C9.69312 44.2562 9.9025 43.1422 10.215 42.0547C10.3396 41.5946 10.5739 41.1716 10.8978 40.8218C15.6041 36.0802 20.3244 31.3531 25.0587 26.6406C25.1888 26.5226 25.3266 26.4135 25.4712 26.314C20.5384 21.389 15.6666 16.5281 10.6603 11.5328C10.5924 11.6859 10.5052 11.8298 10.4009 11.9609C6.63843 16.1203 4.33688 20.9578 3.60719 26.5297C2.93807 31.4152 3.6639 36.3904 5.70093 40.8812C5.71812 40.9172 5.7275 40.9547 5.74469 40.989C5.89 41.3015 5.98218 41.6218 5.60249 41.7922C5.22281 41.9625 5.02594 41.7125 4.89781 41.3843C4.52906 40.4468 4.11656 39.5093 3.79469 38.5515C-1.3225 23.039 8.26813 6.38279 24.2634 3.01404C30.3572 1.73279 36.215 2.43904 41.8494 5.07341C41.9541 5.12185 42.1087 5.14998 42.1525 5.22966C42.2445 5.43701 42.3203 5.6512 42.3791 5.87029C42.1818 5.95389 41.975 6.01318 41.7634 6.04685C41.6259 6.05467 41.4806 5.93123 41.34 5.86404C36.569 3.6319 31.2437 2.86318 26.0363 3.65489C20.8288 4.4466 15.9726 6.76327 12.0806 10.3125C11.9087 10.4687 11.74 10.6328 11.6212 10.7422L26.2791 25.4093C26.3306 25.3609 26.4728 25.2375 26.6056 25.1047C29.0931 22.6192 31.5811 20.1343 34.0697 17.65C34.3384 17.3828 34.4634 17.1812 34.3213 16.7562C34.2392 16.5043 34.2267 16.2349 34.2851 15.9764C34.3435 15.718 34.4707 15.4801 34.6532 15.288C34.8357 15.0959 35.0668 14.9567 35.3219 14.8851C35.577 14.8135 35.8467 14.8122 36.1025 14.8812C36.5291 14.9859 36.7275 14.8578 36.9978 14.5937C41.1509 10.4271 45.3087 6.26977 49.4712 2.12185C50.6306 0.962474 52.0213 0.606228 53.5588 1.0906C55.1213 1.58435 56.0588 2.71873 56.2978 4.35623C56.4916 5.67966 56.0587 6.8156 55.115 7.75935C50.9587 11.9187 46.8015 16.0771 42.6431 20.2343C42.3759 20.5 42.2541 20.7031 42.3713 21.1312C42.6759 22.2453 41.6072 23.2328 40.4759 22.9406C40.3444 22.9001 40.2155 22.8516 40.09 22.7953L31.8759 31.014L49.3759 48.4875C50.3572 47.1843 51.5337 45.8828 52.4197 44.4078C58.0728 34.9828 58.1436 25.4989 52.6322 15.9562C52.4462 15.6343 51.9744 15.25 52.5181 14.9125C53.0962 14.5531 53.24 15.1719 53.44 15.5C63.4603 31.8656 54.3884 53.1937 35.315 57.025C28.0244 58.489 21.19 57.1015 14.915 53.0765C14.8322 53.025 14.7041 52.9875 14.6775 52.9203C14.6047 52.6897 14.5437 52.4555 14.4947 52.2187C14.7197 52.1937 14.9947 52.0718 15.1619 52.1593C15.7494 52.4625 16.2947 52.8468 16.8666 53.1828C26.7103 58.964 39.9728 57.4015 48.2025 49.5047C48.3076 49.4131 48.4193 49.3296 48.5369 49.2547ZM41.6525 19.8797C41.7494 19.789 41.8947 19.6609 42.0306 19.525C46.1608 15.3958 50.2895 11.2651 54.4166 7.13279C54.6149 6.94445 54.7968 6.73955 54.9603 6.52029C55.2468 6.12859 55.4351 5.6739 55.5095 5.19437C55.5839 4.71485 55.5422 4.22447 55.3879 3.76438C55.2337 3.30429 54.9713 2.88792 54.6228 2.55019C54.2744 2.21246 53.85 1.96324 53.3853 1.82342C52.1744 1.45935 51.1166 1.77497 50.2244 2.66872L37.5009 15.3922C37.4454 15.4506 37.3932 15.5121 37.3447 15.5765L41.6525 19.8797ZM29.5166 31.8953C28.4206 31.643 27.2693 31.834 26.3134 32.4265C24.6869 33.4281 23.0822 33.464 21.4775 32.414C21.0931 32.1609 20.8384 32.1687 20.4869 32.525C17.5791 35.4687 14.6384 38.3812 11.7369 41.3265C11.4401 41.6481 11.2256 42.0368 11.1119 42.4593C10.7994 43.5531 10.5947 44.6609 10.2978 45.75C10.2006 46.1004 10.0199 46.4221 9.77125 46.6875C8.59156 47.9093 7.38063 49.1015 6.1775 50.2984C5.87906 50.5953 5.61344 50.9234 6.00094 51.2922C6.38844 51.6609 6.67281 51.3562 6.93844 51.0812C8.1525 49.8656 9.35875 48.6437 10.59 47.4468C10.826 47.2235 11.1138 47.0624 11.4275 46.9781C12.5775 46.675 13.7447 46.4422 14.8916 46.1359C15.2429 46.0434 15.5653 45.8639 15.8291 45.614C20.2551 41.2078 24.6728 36.7911 29.0822 32.364C29.2197 32.2297 29.3416 32.0859 29.5166 31.8953ZM39.2869 22.075C39.2306 22.0078 39.1494 21.9531 39.1306 21.8875C39.0884 21.6515 38.9619 21.339 39.0634 21.1875C39.2681 20.875 39.5681 21.0047 39.8025 21.2453C39.9119 21.3562 40.0259 21.464 40.1337 21.575C40.4462 21.9015 40.7697 22.2828 41.2712 21.8953C41.6181 21.6281 41.5384 21.2703 40.99 20.725C39.4775 19.2031 37.9525 17.6906 36.4306 16.1765C36.3338 16.0797 36.2369 15.925 36.1275 15.914C35.8666 15.8859 35.5025 15.8281 35.3603 15.9672C35.2181 16.1062 35.2853 16.475 35.3181 16.7344C35.3306 16.8422 35.4947 16.9312 35.5916 17.0281L37.7509 19.1734C37.9978 19.4187 38.2572 19.6797 37.9072 20.0109C37.5572 20.3422 37.3119 20.0625 37.0697 19.8203C36.6009 19.3515 36.115 18.8984 35.6634 18.414C35.5376 18.2511 35.4365 18.0705 35.3634 17.8781L27.0275 26.2109C28.3509 27.5328 29.7244 28.9094 31.0728 30.2578L39.2869 22.075ZM26.2509 27.0312L21.7369 31.4625C23.0712 32.439 24.4353 32.4875 25.9056 31.6187C26.5503 31.2651 27.2549 31.0341 27.9838 30.9375C28.7275 30.8218 29.5009 30.9125 30.1072 30.9125L26.2509 27.0312Z" fill="#75BAEB"/>
<path d="M5.60544 59.3016C4.09137 59.3016 3.01482 57.7797 3.64763 56.4094C4.04919 55.536 4.65231 54.7516 5.19606 53.9485C5.45387 53.5688 5.80856 53.5969 6.057 53.9657C6.58825 54.7469 7.17575 55.5282 7.57731 56.3797C8.232 57.7688 7.14919 59.3094 5.60544 59.3016ZM5.60544 54.8032C5.16637 55.5594 4.79294 56.1313 4.49607 56.7407C4.25544 57.2313 4.44919 57.7672 4.91169 58.0704C5.11878 58.2216 5.36935 58.3015 5.62575 58.2981C5.88215 58.2947 6.13054 58.2082 6.33357 58.0516C6.7945 57.7266 6.95857 57.2235 6.70388 56.7157C6.407 56.1125 6.04293 55.5438 5.61325 54.8032H5.60544Z" fill="#75BAEB"/>
</svg>
