<svg width="60" height="60" viewBox="0 0 60 60" fill="none" xmlns="http://www.w3.org/2000/svg">
<path d="M9.13938 49.5063L6.76751 51.8922C7.53626 52.6485 8.33001 53.4188 9.11126 54.1969C9.94876 55.0297 9.94719 55.0313 9.10032 55.8891C8.71594 56.2782 8.31907 56.6563 7.95032 57.0594C7.60345 57.4344 7.29563 57.4735 6.91438 57.0891C4.89251 55.0506 2.86126 53.0193 0.820631 50.9954C0.490943 50.6672 0.470631 50.3704 0.811256 50.0485C1.35813 49.5188 1.90501 48.9798 2.42532 48.4313C2.76282 48.0798 3.05032 48.1297 3.37063 48.4547C4.24407 49.3485 5.12688 50.2329 5.94563 51.0594C6.75032 50.2532 7.52844 49.4751 8.22219 48.7782C7.11751 47.0751 5.81595 45.3501 4.80657 43.4657C-4.26843 26.5766 5.58782 5.68287 24.4003 1.95943C32.0566 0.445369 39.1738 1.87193 45.7222 6.12506C45.8363 6.19849 46.0019 6.25318 46.0503 6.35943C46.1331 6.54537 46.2441 6.87193 46.1628 6.94693C46.0222 7.07974 45.7441 7.10318 45.5238 7.10318C45.4097 7.10318 45.2925 6.97193 45.1784 6.89693C39.8925 3.44381 34.0847 1.95005 27.8113 2.46568C21.405 2.99224 15.8378 5.49537 11.1269 9.88443C11.047 9.9467 10.9599 9.99915 10.8675 10.0407L25.8675 25.0172C27.0394 23.8344 28.2722 22.5876 29.5097 21.3454C31.8659 18.9797 34.2264 16.6178 36.5909 14.2594C36.7373 14.1379 36.9171 14.0638 37.1066 14.0469C39.2941 13.7594 41.4816 13.4985 43.6691 13.1907C43.9871 13.1269 44.2781 12.9677 44.5034 12.7344C47.7201 9.54068 50.9274 6.33808 54.1253 3.12662C54.2363 3.01724 54.33 2.84537 54.4613 2.81412C54.7006 2.773 54.9435 2.75624 55.1862 2.76412C55.1943 2.9919 55.1733 3.21977 55.1238 3.44224C55.0706 3.59068 54.8909 3.69693 54.7659 3.82193C51.5753 7.01047 48.3868 10.2037 45.2003 13.4016C44.9647 13.6472 44.8084 13.9581 44.7519 14.2938C44.4581 16.361 44.2269 18.4376 43.9238 20.5047C43.8543 20.915 43.6652 21.2955 43.38 21.5985C40.0415 24.9735 36.6868 28.3318 33.3159 31.6735C33.1644 31.8082 33.003 31.9314 32.8331 32.0422L49.891 49.1079C49.9805 49.04 50.0656 48.9664 50.1456 48.8876C54.2269 44.486 56.6738 39.3157 57.4409 33.3547C57.9769 29.1969 57.53 25.1391 56.2222 21.1672C56.1987 21.0922 56.1347 21.011 56.1519 20.9485C56.2159 20.7141 56.2409 20.3751 56.4019 20.2829C56.7144 20.1001 56.9488 20.3391 57.0394 20.6641C57.3644 21.8282 57.7581 22.9782 57.9909 24.161C60.9941 39.3172 52.1097 53.7954 37.1409 57.6251C26.7488 60.2813 17.5753 57.5907 9.7972 50.2047C9.56126 50.0001 9.36594 49.7548 9.13938 49.5063ZM49.0956 49.8985L32.1269 32.9501L16.2503 48.8563C16.4628 49.0438 16.7191 49.2563 16.9534 49.4813C17.1878 49.7063 17.4753 49.9985 17.1503 50.3204C16.8253 50.6422 16.5503 50.3985 16.2988 50.1438C15.1425 48.9813 13.9831 47.8209 12.8206 46.6626C12.6753 46.5173 12.5222 46.3813 12.4394 46.3047L9.95656 48.7813C19.5784 59.611 37.8019 60.9266 49.0956 49.8985ZM10.1566 10.8969C-0.0481188 21.4047 0.208133 37.9501 9.20188 47.9454L11.7191 45.4188C11.5651 45.3273 11.4192 45.2228 11.2831 45.1063C10.0909 43.9235 8.90657 42.7313 7.71594 41.5469C7.47063 41.3016 7.27845 41.0016 7.61126 40.7657C7.75813 40.661 8.14719 40.7657 8.34719 40.8907C8.61873 41.0958 8.86895 41.3277 9.09407 41.5829L24.9472 25.7204C20.0586 20.8204 15.1284 15.8792 10.1566 10.8969ZM30.7206 21.5829C31.0956 21.936 31.4831 22.2922 31.8613 22.6594C32.1034 22.8938 32.205 23.2079 31.8941 23.4001C31.7378 23.4969 31.3613 23.4251 31.205 23.2907C30.8424 22.9473 30.5011 22.582 30.1831 22.1969L28.0691 24.2501C28.4673 24.5811 28.8441 24.937 29.1972 25.3157C29.3284 25.4719 29.3847 25.8594 29.2816 26.011C29.0785 26.311 28.7691 26.1891 28.5363 25.9516C28.1691 25.5782 27.8066 25.1985 27.4425 24.8219C27.0972 25.1672 26.7988 25.4626 26.5331 25.7297L32.2238 31.4063C32.3128 31.3235 32.4534 31.1954 32.5894 31.0594C35.5581 28.0907 38.4925 25.0876 41.5144 22.1735C42.505 21.2188 43.1378 20.2454 43.2113 18.8329C43.2925 17.286 43.5816 15.7501 43.7909 14.1219L37.98 14.8876C38.6191 15.5126 39.1628 16.0391 39.6988 16.5704C40.3503 17.2172 41.016 17.8516 41.6285 18.5329C41.7581 18.6782 41.6847 19.0016 41.705 19.2485C41.4644 19.2251 41.1769 19.2782 40.9941 19.1626C40.705 18.9782 40.4847 18.6844 40.2378 18.4344L37.1128 15.2641L33.3831 18.9938C33.7599 19.2978 34.1139 19.6289 34.4425 19.9844C34.5847 20.1563 34.6613 20.5641 34.5566 20.7219C34.3566 21.0219 34.0425 20.8876 33.8175 20.6407C33.4644 20.2563 33.1128 19.8688 32.7659 19.4876L30.7206 21.5829ZM25.8097 26.5391L20.7941 31.5626L26.3519 37.1016L31.3519 32.1016L25.8097 26.5391ZM20.055 32.3204C16.6691 35.7094 13.3113 39.0735 10.0238 42.3657L12.3441 44.7094L22.3909 34.6594L20.055 32.3204ZM15.5628 47.9172L25.5363 37.9422L23.1503 35.5719L13.1847 45.5391L15.5628 47.9172ZM8.50032 55.1047L2.9175 49.5188L1.81126 50.4829C3.71282 52.386 5.59563 54.2735 7.44719 56.1251L8.50032 55.1047Z" fill="#E46198"/>
<path d="M52.0059 14.6078C52.2215 14.0094 52.334 13.3422 52.673 12.8266C53.5074 11.5578 54.4402 10.3547 55.3465 9.13594C55.5902 8.80625 55.8934 8.77813 56.1824 9.1C57.3059 10.35 58.3699 11.65 59.0824 13.1953C59.734 14.6156 59.4824 16.0438 58.4215 17.1406C57.9109 17.6727 57.2516 18.0383 56.5299 18.1897C55.8081 18.3411 55.0575 18.2712 54.3762 17.9891C53.0215 17.4281 52.1152 16.0938 52.0059 14.6078ZM55.9434 10.0281L55.6168 10.0422C54.8465 11.2328 54.0106 12.3859 53.3231 13.625C52.7215 14.7047 53.1121 15.9859 54.1043 16.75C54.5781 17.119 55.1604 17.3215 55.761 17.326C56.3615 17.3305 56.9468 17.1368 57.4262 16.775C58.4246 16.0219 58.8324 14.7344 58.2481 13.65C57.5606 12.4063 56.7184 11.2359 55.9371 10.0281H55.9434Z" fill="#E46198"/>
<path d="M37.3435 24.639C37.2628 24.7866 37.1693 24.9267 37.0638 25.0578C35.9097 26.2203 34.7508 27.3791 33.5873 28.5343C33.3576 28.7624 33.0529 28.9265 32.8482 28.6156C32.7404 28.4593 32.7998 28.0312 32.9451 27.8796C34.0763 26.6937 35.2404 25.5359 36.4154 24.3968C36.5909 24.27 36.8092 24.2172 37.0232 24.2499C37.131 24.264 37.2201 24.489 37.3435 24.639Z" fill="#E46198"/>
<path d="M38.0086 23.8203C37.9399 23.7688 37.7477 23.6985 37.6961 23.5688C37.6677 23.4924 37.6569 23.4106 37.6645 23.3294C37.672 23.2483 37.6978 23.1699 37.7399 23.1C38.0552 22.7306 38.3978 22.3853 38.7649 22.0672C38.8343 22.024 38.9129 21.9978 38.9944 21.9907C39.0758 21.9836 39.1578 21.9959 39.2336 22.0266C39.3023 22.0721 39.3606 22.1318 39.4045 22.2015C39.4484 22.2713 39.477 22.3496 39.4883 22.4313C39.518 22.7266 38.4133 23.8094 38.0086 23.8203Z" fill="#E46198"/>
<path d="M55.8711 16.2094C55.807 16.136 55.5711 15.986 55.5586 15.8266C55.5685 15.7233 55.6039 15.624 55.6617 15.5378C55.7196 15.4516 55.798 15.3812 55.8898 15.3329C56.3133 15.2282 56.4961 15 56.6024 14.5938C56.6383 14.4532 56.9492 14.2969 57.1227 14.3094C57.2508 14.3188 57.4461 14.5844 57.4617 14.7485C57.5352 15.4844 56.7789 16.2297 55.8711 16.2094Z" fill="#E46198"/>
</svg>
