<svg width="60" height="60" viewBox="0 0 60 60" fill="none" xmlns="http://www.w3.org/2000/svg">
<path d="M57.5398 23.3626C57.5167 23.2486 57.4519 23.1472 57.358 23.0784C57.2642 23.0096 57.148 22.9783 57.0323 22.9906C56.9166 23.0029 56.8096 23.0579 56.7323 23.1448C56.6549 23.2318 56.6128 23.3444 56.6141 23.4608V23.52L56.6297 23.5777C57.7567 27.9728 57.7409 32.5831 56.5838 36.9704C55.4267 41.3576 53.1668 45.376 50.0188 48.6437L33.4027 32.026L42.2359 23.1928C42.7134 22.7085 43.315 22.365 43.9748 22.2C44.6345 22.0351 45.327 22.055 45.9762 22.2577C48.0941 22.9231 49.997 23.0541 51.6318 22.6457C52.9908 22.3076 58.0463 19.5289 58.0463 14.9595C58.054 14.0725 57.8745 13.1939 57.5195 12.381C57.1645 11.5681 56.642 10.8393 55.9861 10.2421C54.8094 9.1512 53.2214 8.4577 51.8063 8.40003C51.7487 6.98497 51.0567 5.39536 49.9642 4.22029C49.3671 3.56439 48.6383 3.04186 47.8254 2.68684C47.0125 2.33182 46.1338 2.15231 45.2468 2.16003C40.6806 2.16003 37.8988 7.21562 37.5606 8.57458C37.1523 10.2109 37.2832 12.1122 37.9502 14.2286C38.153 14.8778 38.1731 15.5703 38.0081 16.2301C37.8432 16.8899 37.4996 17.4915 37.0152 17.9689L28.1819 26.8037L12.4416 11.0634C15.7079 7.91458 19.725 5.65323 24.1114 4.49425C28.4977 3.33526 33.1076 3.31714 37.503 4.44159C37.6232 4.47238 37.7508 4.45414 37.8576 4.39086C37.9645 4.32759 38.0418 4.22447 38.0726 4.10419C38.1034 3.98391 38.0851 3.85633 38.0218 3.74951C37.9586 3.64269 37.8554 3.56537 37.7352 3.53458C35.4914 2.96122 33.1845 2.67169 30.8687 2.67276C15.6895 2.67276 3.34036 15.0218 3.34036 30.2026C3.33993 32.5154 3.62945 34.8191 4.20216 37.0598C4.22811 37.1603 4.28676 37.2493 4.36887 37.3128C4.45098 37.3762 4.55189 37.4106 4.65568 37.4104C4.69505 37.4103 4.73427 37.4056 4.77256 37.3964C4.83217 37.3811 4.88818 37.3543 4.93738 37.3173C4.98659 37.2804 5.02802 37.2341 5.05929 37.1811C5.09056 37.1281 5.11107 37.0695 5.11963 37.0085C5.12819 36.9476 5.12465 36.8856 5.10919 36.826C3.97899 32.4186 3.99802 27.7949 5.16443 23.3969C6.33085 18.9989 8.60567 14.9735 11.7715 11.7055L27.5118 27.4457L17.7544 37.2016C17.2769 37.6859 16.6753 38.0294 16.0155 38.1943C15.3558 38.3592 14.6633 38.3393 14.0141 38.1367C11.8978 37.4696 9.9949 37.3387 8.35853 37.747C7.00113 38.0868 1.94554 40.8639 1.94554 45.4348C1.93795 46.3216 2.11753 47.2 2.47255 48.0126C2.82756 48.8252 3.35003 49.5538 4.00582 50.1507C5.18088 51.2416 6.77049 51.9351 8.18555 51.9943C8.24321 53.4078 8.93359 54.9959 10.0276 56.1725C10.6248 56.8284 11.3536 57.3509 12.1665 57.706C12.9794 58.061 13.858 58.2405 14.745 58.2328C17.0266 58.2328 18.864 56.9689 20.1731 55.5351C21.4822 54.1013 22.263 52.4993 22.4313 51.8198C22.8396 50.1834 22.7087 48.2821 22.0417 46.1642C21.839 45.515 21.8191 44.8225 21.984 44.1628C22.1489 43.503 22.4924 42.9014 22.9767 42.4239L32.7326 32.6665L49.3487 49.2826C46.0814 52.4496 42.056 54.7252 37.6578 55.8917C33.2595 57.0582 28.6355 57.0765 24.2281 55.945C24.1079 55.914 23.9802 55.932 23.8732 55.9951C23.7663 56.0583 23.6888 56.1613 23.6578 56.2816C23.6268 56.4019 23.6448 56.5295 23.7079 56.6365C23.7711 56.7435 23.8741 56.821 23.9944 56.852C26.2349 57.4261 28.5386 57.7162 30.8515 57.7153C46.0323 57.7153 58.3814 45.3663 58.3814 30.1855C58.3866 27.885 58.1039 25.5929 57.5398 23.3626ZM22.319 41.785C21.7149 42.3826 21.2868 43.1348 21.0815 43.9594C20.8761 44.784 20.9015 45.6492 21.1549 46.4603C21.5189 47.5579 21.7138 48.7045 21.7331 49.8608C21.7371 50.4488 21.6685 51.0351 21.5289 51.6063C21.3591 52.2842 18.9731 57.3117 14.7497 57.3117C13.9913 57.3182 13.24 57.1646 12.545 56.8608C11.85 56.5571 11.2269 56.1101 10.7165 55.5491C9.65983 54.4114 9.03645 52.8499 9.12996 51.5689L9.16892 51.0281L8.6297 51.0686C7.35178 51.1621 5.784 50.5372 4.64634 49.479C4.08585 48.9689 3.63929 48.3463 3.33583 47.6518C3.03238 46.9574 2.87886 46.2067 2.88529 45.4489C2.88529 41.2239 7.91282 38.838 8.59074 38.6681C10.0557 38.3018 11.7887 38.4281 13.7336 39.0421C14.5447 39.2955 15.4099 39.3209 16.2345 39.1155C17.0591 38.9102 17.8113 38.4821 18.4089 37.8779L28.1663 28.1221L32.0624 32.0182L22.319 41.785ZM28.8333 27.4644L37.6666 18.6312C38.2707 18.0336 38.6989 17.2814 38.9042 16.4568C39.1095 15.6322 39.0841 14.767 38.8307 13.9559C38.2167 12.0063 38.0905 10.2748 38.4567 8.81302C38.625 8.13509 41.0094 3.10756 45.2359 3.10756C45.9939 3.09971 46.7449 3.25196 47.4399 3.55435C48.1349 3.85675 48.7583 4.30247 49.2692 4.86237C50.3274 5.99847 50.9507 7.56315 50.8572 8.84419L50.8183 9.38341L51.3575 9.34445C52.6385 9.25094 54.2017 9.87432 55.3393 10.9309C55.9003 11.4414 56.3473 12.0645 56.651 12.7595C56.9548 13.4545 57.1084 14.2057 57.1019 14.9642C57.1019 19.1907 52.0744 21.5751 51.3965 21.7434C49.93 22.1096 48.1985 21.9834 46.2536 21.3694C45.4425 21.1164 44.5774 21.0912 43.7529 21.2965C42.9283 21.5018 42.1761 21.9297 41.5783 22.5335L32.7497 31.3668L28.8333 27.4644Z" fill="#75BAEB"/>
<path d="M53.6501 18.762C53.5664 18.8299 53.4618 18.8668 53.354 18.8664C53.2848 18.8664 53.2165 18.851 53.1539 18.8213C53.0914 18.7917 53.0362 18.7485 52.9924 18.695C52.9139 18.5991 52.8767 18.4759 52.889 18.3526C52.9013 18.2293 52.962 18.1159 53.0579 18.0373C54.2797 17.0384 54.8579 15.5438 54.5291 14.2145C54.3235 13.4651 53.8758 12.8048 53.2558 12.3365C53.2048 12.3 53.1617 12.2535 53.1291 12.1999C53.0964 12.1463 53.0749 12.0867 53.0658 12.0247C53.0567 11.9626 53.0601 11.8993 53.076 11.8386C53.0918 11.7779 53.1197 11.721 53.158 11.6713C53.1963 11.6216 53.2442 11.5801 53.2989 11.5493C53.3535 11.5185 53.4138 11.4991 53.4762 11.4921C53.5385 11.4851 53.6017 11.4907 53.6618 11.5086C53.7219 11.5265 53.7778 11.5563 53.8262 11.5963C54.6131 12.1932 55.1794 13.0347 55.4361 13.9885C55.8522 15.6622 55.1509 17.5324 53.6501 18.762Z" fill="#75BAEB"/>
</svg>
