<svg width="60" height="60" viewBox="0 0 60 60" fill="none" xmlns="http://www.w3.org/2000/svg">
<path d="M58.6049 29.4188C58.8877 45.2875 46.294 58.275 30.5909 58.5797C14.7237 58.8922 1.71429 46.3813 1.42679 30.5953C1.13616 14.6172 13.7799 1.58284 29.5658 1.3969C37.1264 1.2834 44.4246 4.16697 49.8658 9.41757C55.307 14.6682 58.4489 21.859 58.6049 29.4188ZM49.9377 49.2625C56.6565 41.7344 59.3127 33.0891 56.7877 23.3157C54.0346 12.6453 47.0533 5.75628 36.3455 3.13597C26.6815 0.770343 18.1518 3.44847 10.8158 10.0032L22.2393 21.425C22.294 21.3547 22.3768 21.2516 22.4565 21.1453C24.7783 18.0808 27.1013 15.0167 29.4252 11.9532C29.894 11.3453 30.1065 11.3594 30.5987 11.9532C31.3674 12.8907 32.1424 13.8282 32.8877 14.7735C36.1096 18.9063 39.1721 23.1453 41.5627 27.8266C42.469 29.6032 43.2815 31.4203 43.594 33.4125C44.0049 36.0485 43.4237 38.536 42.258 40.8969C42.0737 41.2719 42.1299 41.4657 42.4143 41.7391C43.8205 43.1203 45.2127 44.5219 46.6065 45.9172L49.9377 49.2625ZM49.133 49.9266L41.4893 42.286C41.4143 42.386 41.308 42.525 41.2065 42.6672C35.758 50.2563 24.744 50.4703 19.0955 43.025C16.5955 39.7235 15.5893 35.9938 16.783 31.8844C17.4955 29.4328 18.7033 27.1969 19.9955 25.0094C20.5299 24.1063 21.0893 23.2188 21.5893 22.4125L10.0549 10.8797C0.0236573 21.0641 -0.701344 38.5657 10.6112 49.6891C21.9987 60.8875 39.3408 59.6719 49.133 49.925V49.9266ZM29.9721 12.6L22.8627 22.0594L34.844 34.036C37.0971 32.5563 39.6377 32.0375 42.533 32.5016C39.7768 24.9282 34.8705 18.8875 29.9721 12.6ZM17.3783 35.3266L17.2143 35.4156C17.2924 35.9719 17.3533 36.5328 17.4518 37.086C17.9153 39.5724 19.106 41.8655 20.8732 43.675C22.6404 45.4845 24.9047 46.729 27.3795 47.2511C29.8543 47.7732 32.4284 47.5494 34.776 46.608C37.1235 45.6665 39.139 44.0499 40.5674 41.9625C40.8268 41.5828 40.7549 41.386 40.458 41.0938C38.6518 39.3125 36.8643 37.511 35.069 35.7188C34.9471 35.5969 34.8143 35.4875 34.6471 35.336C34.2612 35.7016 33.8893 36.0422 33.5315 36.3953C29.2705 40.5938 23.2612 40.6719 18.8846 36.5953C18.4049 36.1485 17.8815 35.7485 17.3783 35.3266ZM22.3174 23.0672C20.8362 25.35 19.4065 27.6547 18.4112 30.1828C17.9424 31.3516 17.6612 32.5922 17.3252 33.8094C17.3122 33.9041 17.321 34.0005 17.3511 34.0913C17.3812 34.182 17.4316 34.2647 17.4987 34.3328C18.3174 35.0219 19.1799 35.6594 19.9987 36.3531C21.6423 37.7996 23.747 38.6138 25.9362 38.65C29.3049 38.7188 31.8487 37.0875 33.9252 34.6594L22.3174 23.0672ZM35.569 34.7016L41.4065 40.5344C42.4318 38.527 42.8986 36.2809 42.758 34.0313C42.7299 33.6 42.5299 33.4063 42.108 33.3938C41.369 33.3657 40.6268 33.2547 39.8924 33.2922C38.3513 33.3676 36.8584 33.8542 35.569 34.7016Z" fill="#75BAEB"/>
</svg>
