<svg width="60" height="60" viewBox="0 0 60 60" fill="none" xmlns="http://www.w3.org/2000/svg">
<path d="M58.5938 29.9859C58.6172 45.7171 45.7672 58.5796 30.0219 58.5937C14.1953 58.6031 1.42815 45.8093 1.40627 29.9203C1.38752 14.2953 14.2391 1.42025 29.886 1.40619C33.649 1.39262 37.3776 2.12166 40.8584 3.55154C44.3391 4.98143 47.5036 7.08405 50.1704 9.73894C52.8372 12.3938 54.9539 15.5488 56.3994 19.0232C57.8448 22.4975 58.5905 26.2229 58.5938 29.9859ZM49.9891 49.1953C56.7422 41.5749 59.386 32.789 56.6547 22.8968C53.6516 12.0156 46.3422 5.20776 35.286 2.91557C25.975 0.984317 17.8 3.72026 10.7547 10.0749C10.9031 10.2312 10.9813 10.3218 11.0672 10.4046C21.9078 21.2453 32.75 32.0848 43.5938 42.9234C43.636 42.9656 43.6703 43.0328 43.7188 43.0437C43.9188 43.089 44.1547 43.2 44.3188 43.1375C44.825 42.939 45.2938 42.6453 45.8 42.4437C46.1719 42.2953 46.2688 42.0749 46.2688 41.689C46.2531 38.8968 46.2688 36.1031 46.2594 33.3109C46.2594 33.1546 46.2313 32.9874 46.211 32.7624L42.3578 34.6374C41.1313 35.2359 39.9016 35.8296 38.6766 36.4296C38.3641 36.5859 38.0516 36.5859 37.9703 36.2234C37.9297 36.0437 38.1532 35.7968 38.275 35.5984C38.3078 35.5421 38.4094 35.5265 38.4797 35.4937L45.0032 32.3218C45.186 32.2328 45.3578 32.1249 45.5844 31.9984C45.4516 31.9171 45.3906 31.8734 45.325 31.8421C43.1141 30.7687 40.9078 29.6875 38.6875 28.6359C38.4614 28.5592 38.2144 28.5732 37.9985 28.6749C36.4453 29.4046 34.9063 30.1609 33.361 30.9093C33.0485 31.0656 32.7047 31.2218 32.5032 30.8078C32.3016 30.3937 32.6219 30.2249 32.9438 30.0703C34.4375 29.3484 35.9125 28.6062 37.4188 27.8999C37.7703 27.7343 37.8969 27.5421 37.8875 27.1499C37.8688 24.3562 37.8782 21.564 37.875 18.7718C37.875 18.6156 37.8453 18.4484 37.8297 18.289C37.7726 18.2865 37.7154 18.2913 37.6594 18.3031C35.3625 19.4218 33.0625 20.5343 30.7844 21.6765C30.6282 21.7578 30.4875 22.0624 30.486 22.264C30.4625 23.9828 30.4703 25.7015 30.4735 27.4203C30.4735 27.7874 30.4735 28.1906 29.9797 28.1765C29.5297 28.1624 29.5313 27.7796 29.5328 27.4312C29.5328 25.7124 29.5328 23.9937 29.5328 22.2749C29.5328 21.9531 29.4719 21.7468 29.1453 21.5906C26.9578 20.5484 24.7938 19.4828 22.6188 18.4265C22.4844 18.3609 22.3375 18.3218 22.1141 18.239C22.1141 18.6484 22.1141 18.9937 22.1141 19.3328C22.1141 19.6718 21.9781 19.9687 21.6172 19.8874C21.4391 19.8484 21.2203 19.5374 21.1985 19.3312C21.1386 18.7293 21.1318 18.1233 21.1781 17.5203C21.1995 17.4047 21.2458 17.2952 21.3138 17.1994C21.3818 17.1036 21.4699 17.0238 21.5719 16.9656C24.1953 15.6718 26.8344 14.4109 29.4578 13.1203C29.625 13.0268 29.8132 12.9777 30.0047 12.9777C30.1962 12.9777 30.3845 13.0268 30.5516 13.1203C33.1094 14.3703 35.6688 15.6203 38.2438 16.8312C38.6797 17.0374 38.8438 17.2718 38.8407 17.7562C38.8188 20.8624 38.8406 23.9671 38.8188 27.0718C38.8188 27.5062 38.9547 27.7234 39.3485 27.9078C41.7985 29.0671 44.2386 30.2468 46.6688 31.4468C46.8985 31.5609 47.1813 31.8781 47.1828 32.1015C47.2094 35.4796 47.1828 38.8578 47.1922 42.2374C47.2055 42.4121 47.1609 42.5862 47.0655 42.733C46.9701 42.8798 46.829 42.9912 46.6641 43.05C46.0188 43.3453 45.3875 43.675 44.7688 43.9765L49.9891 49.1953ZM49.2078 49.8421C47.4813 48.1234 45.761 46.3953 44.0125 44.6953C43.8969 44.5812 43.5438 44.5984 43.3594 44.6843C41.8235 45.4046 40.3078 46.1687 38.7703 46.8843C38.5163 46.992 38.23 46.9954 37.9735 46.8937C35.486 45.7104 33.0104 44.5062 30.5469 43.2812C30.3984 43.1932 30.2294 43.1454 30.0568 43.1427C29.8841 43.1399 29.7138 43.1823 29.5625 43.2656C27.0625 44.5 24.5552 45.7197 22.0406 46.925C21.8046 47.0297 21.5367 47.037 21.2953 46.9453C18.6735 45.6953 16.0719 44.3968 13.45 43.1437C12.9813 42.9171 12.7938 42.639 12.7969 42.1156C12.811 38.8156 12.7969 35.514 12.811 32.214C12.8244 32.0793 12.868 31.9493 12.9386 31.8338C13.0092 31.7183 13.105 31.6202 13.2188 31.5468C15.7125 30.2968 18.2183 29.0739 20.736 27.8781C21.0922 27.7078 21.2047 27.4984 21.1922 27.1156C21.1641 26.1781 21.1922 25.2406 21.1828 24.3031C21.1828 23.9624 21.1625 23.5718 21.6313 23.5687C22.1313 23.5687 22.1203 23.9718 22.1203 24.3343C22.1203 25.2515 22.1375 26.1703 22.1125 27.0874C22.1016 27.4859 22.2078 27.7124 22.5938 27.8968C25.0219 29.0515 27.4375 30.2499 29.8625 31.4015C30.3172 31.6156 30.4875 31.8609 30.4875 32.3671C30.4656 35.4531 30.4875 38.539 30.4672 41.625C30.4672 42.05 30.5766 42.2796 30.9782 42.4718C33.0922 43.475 35.1969 44.514 37.2922 45.5406C37.461 45.6234 37.636 45.6968 37.8797 45.8015V45.0781C37.8797 43.6531 37.8797 42.2276 37.8797 40.8015C37.8797 40.4624 37.8688 40.0859 38.3485 40.0718C38.8281 40.0578 38.8172 40.4328 38.8172 40.7734V45.8234L43.0031 43.7921L10.0813 10.8703C0.157836 20.8703 -0.820291 38.3953 10.5672 49.6468C21.9953 60.9375 39.3985 59.6375 49.2 49.8437L49.2078 49.8421ZM21.1828 45.839C21.1828 42.714 21.1828 39.7109 21.1641 36.7093C21.1641 36.5312 20.9328 36.2812 20.7469 36.189C18.8313 35.2328 16.9016 34.3031 14.9766 33.3656L13.7844 32.7875C13.7666 32.8841 13.7541 32.9816 13.7469 33.0796C13.7469 36.0046 13.736 38.9296 13.7625 41.8546C13.7625 42.0515 13.9875 42.3328 14.1813 42.4296C16.0781 43.3812 17.9906 44.3046 19.9 45.2296C20.2969 45.4234 20.6969 45.6093 21.1828 45.839ZM22.1375 45.8078C22.2938 45.7499 22.3813 45.7234 22.4625 45.6828C24.7063 44.589 26.9453 43.4953 29.1953 42.4218C29.5078 42.2656 29.5344 42.0609 29.5344 41.7734C29.5344 38.9453 29.5344 36.1161 29.5344 33.2859V32.8171C29.4542 32.8361 29.3753 32.8607 29.2985 32.8906C27.0203 33.9968 24.7391 35.0968 22.475 36.2312C22.3016 36.3187 22.1625 36.6468 22.1547 36.8656C22.1328 39.4203 22.1406 41.9765 22.1406 44.5328L22.1375 45.8078ZM14.4016 32.0312C14.5922 32.1359 14.7219 32.214 14.8594 32.2796C16.961 33.3015 19.0672 34.3109 21.1625 35.3515C21.3118 35.4372 21.481 35.4823 21.6532 35.4823C21.8253 35.4823 21.9944 35.4372 22.1438 35.3515C24.2391 34.3156 26.3438 33.2984 28.4453 32.2734C28.575 32.2093 28.6985 32.1328 28.8453 32.0499C28.7981 31.9984 28.7457 31.9519 28.6891 31.9109C26.4313 30.8078 24.1766 29.7015 21.9078 28.6187C21.6994 28.5593 21.4763 28.5805 21.2828 28.6781C20.2063 29.1828 19.1438 29.714 18.0766 30.2406L14.4016 32.0312ZM37.2485 17.4171C34.8719 16.2703 32.561 15.1484 30.2406 14.0531C30.0735 13.9734 29.7891 14.0374 29.6032 14.1265C27.4782 15.1453 25.361 16.1796 23.2422 17.2124C23.1156 17.2749 22.9969 17.3515 22.8469 17.4359C22.9061 17.4885 22.9687 17.537 23.0344 17.5812C25.2547 18.6749 27.4719 19.7687 29.7031 20.8343C29.9297 20.9102 30.177 20.8945 30.3922 20.7906C32.536 19.7687 34.6703 18.7234 36.7985 17.6812C36.9391 17.614 37.061 17.5265 37.2485 17.414V17.4171Z" fill="#E46198"/>
</svg>
