<svg xmlns="http://www.w3.org/2000/svg" viewBox="0 0 1000 327"><path  d="M470.43,68.65h51.86s51.35-1.05,50.83,46.11c-.51,35.11-49.79,40.35-49.79,40.35h-52.91v-86.46h0ZM625.59,237.93c1.46,6.86,6.37,14.42,22.75,15.19,21.78.52,34.23-7.87,34.23-7.87v16.25s-23.86,5.77-35.27,5.77-47.2-2.63-47.2-35.64c0-26.72,29.05-35.11,45.64-35.11,29.05,1.05,43.05,11.53,42.53,41.4,0,.43-47.79.11-62.68,0h0ZM625.66,224.82h39.8s0-15.19-19.19-15.19c-14.44,0-19.16,7.86-20.6,15.19ZM751.55,208.41c5.76-6.31,15.43-11.37,31.64-11.37,32.16,0,37.35,27.25,36.83,34.59-.52,7.34-3.11,35.11-40.45,35.11-14.11,0-22.74-4.86-28.02-10.9v8.8h-25.42v-94.33h25.42v38.1h0ZM773.35,252.07c15.04-.53,21.78-13.62,21.78-19.91s-3.64-19.39-22.83-19.39c-14.89,0-19.43,11.37-20.75,16.92v6.84c1.31,5.66,5.87,15.55,21.79,15.55h0ZM992.75,249.45l.51,14.68s-11.93,2.62-19.7,2.62-28.02-4.71-28.02-24.63v-30.39h-21.26v-13.62h21.26v-16.25h25.94v16.25h21.27v13.62h-21.27v26.21s0,13.1,10.38,13.1,10.89-1.58,10.89-1.58h0ZM913.91,82.8h30.08v72.84h25.41v-72.84h30.61v-15.2h-86.09v15.2ZM903.53,86.47l3.11-15.2s-12.97-5.76-35.78-5.76-58.09,12.58-58.09,46.64,37.86,45.07,61.2,45.07,31.12-3.67,31.12-3.67l-2.59-16.77s-10.38,3.14-28.02,3.14c-17.12-.52-34.74-14.15-34.74-29.34.51-13.63,16.07-28.83,36.31-28.83,15.55,0,27.48,4.71,27.48,4.71h0ZM674.27,68.13s42.53-2.09,42.53,23.06c0,21.49-24.37,23.06-24.37,23.06,0,0,6.74,1.05,9.85,5.76,2.59,4.19,19.7,35.64,19.7,35.64h-25.94s-4.15-5.24-6.22-8.91c-1.55-3.67-6.22-11.53-6.22-11.53,0,0-3.62-13.1-16.08-13.1-.31,0-5.38-.2-9.34-.34v33.88h-24.89v-87.52h40.98,0ZM658.19,107.44h13.49s18.67-1.05,19.7-12.58c.52-11-18.15-12.58-18.15-12.58h-15.05v25.16h0ZM762.44,121.06h41.5v-16.25h-41.5v-19.91h45.13v-16.77h-70.53v87.52h71.06v-15.72h-45.65v-18.86h0ZM863.58,188.13h25.42v-17.82h-25.42v17.82ZM863.58,264.65h25.42v-66.55h-25.42v66.55ZM586.62,155.65h24.89v-87.52h-24.89v87.52h0ZM470.43,177.66h51.86s51.35-1.06,50.83,46.11c-.51,35.11-49.79,40.36-49.79,40.36h-52.91v-86.47h0,0ZM495.85,247.88h16.6s34.23-2.1,34.23-28.83-36.31-29.35-36.31-29.35h-14.52v58.17ZM495.85,138.88h16.6s34.23-2.62,34.23-28.83-36.31-29.34-36.31-29.34h-14.52v58.17ZM237.55,120.75v175.34s-100.63-18.34-100.63-88.04c0-55.59,74.49-80.09,100.63-87.3ZM237.55,117.48c-60.48-4.42-197.61,24.22-197.61,86.9,0,40.87,72.62,100.62,190.87,102.19,4.67,0,139-5.24,136.93-150.93-1.74-122.36-92.38-143.79-121.37-147.52V.66c115.55,7.41,206.43,77.62,206.43,162.84,0,90.14-101.66,163.5-226.66,163.5S0,253.63,0,163.5,101.14,0,226.14,0c3.83,0,7.64.07,11.41.21v117.27h0Z"/>
</svg>